<svg width="121" height="20" viewBox="0 0 121 20" fill="none" xmlns="http://www.w3.org/2000/svg">
<path d="M0.865997 18.8333V0.0639801H4.2981L13.1197 13.283V0.0639801H16.5518V18.8333H13.1197L4.2981 5.64116V18.8333H0.865997Z" fill="black"/>
<path d="M25.2314 19.1551C23.8907 19.1551 22.702 18.8691 21.6652 18.2971C20.6284 17.725 19.8151 16.9206 19.2252 15.8839C18.6353 14.8471 18.3403 13.6494 18.3403 12.2909C18.3403 10.9144 18.6263 9.68997 19.1984 8.61744C19.7883 7.5449 20.5927 6.71369 21.6116 6.12379C22.6483 5.51603 23.8639 5.21214 25.2582 5.21214C26.5631 5.21214 27.7161 5.49815 28.7171 6.07017C29.7181 6.64219 30.4957 7.42871 31.0499 8.42974C31.6219 9.4129 31.9079 10.5122 31.9079 11.7278C31.9079 11.9244 31.8989 12.13 31.8811 12.3445C31.8811 12.559 31.8721 12.7824 31.8543 13.0148H21.7456C21.8171 14.0516 22.1746 14.8649 22.8182 15.4548C23.4796 16.0447 24.275 16.3397 25.2045 16.3397C25.9017 16.3397 26.4827 16.1877 26.9474 15.8839C27.4301 15.5621 27.7876 15.151 28.0199 14.6504H31.5057C31.2554 15.4906 30.8353 16.2592 30.2455 16.9564C29.6734 17.6357 28.9584 18.1719 28.1004 18.5652C27.2602 18.9584 26.3039 19.1551 25.2314 19.1551ZM25.2582 8.00073C24.418 8.00073 23.6762 8.24205 23.0327 8.72469C22.3891 9.18945 21.978 9.90448 21.7993 10.8698H28.4221C28.3685 9.99386 28.0468 9.29671 27.4569 8.77832C26.867 8.25993 26.1341 8.00073 25.2582 8.00073Z" fill="black"/>
<path d="M31.2771 18.8333L36.1035 12.1836L31.2771 5.5339H34.9506L38.329 10.253L41.6807 5.5339H45.381L40.5277 12.1836L45.381 18.8333H41.6807L38.329 14.1142L34.9506 18.8333H31.2771Z" fill="black"/>
<path d="M52.1526 18.8333C50.7583 18.8333 49.6411 18.4937 48.8009 17.8144C47.9608 17.1351 47.5407 15.9285 47.5407 14.1946V8.40293H45.2616V5.5339H47.5407L47.9429 1.96773H50.9728V5.5339H54.5658V8.40293H50.9728V14.2214C50.9728 14.8649 51.1069 15.3118 51.375 15.5621C51.661 15.7945 52.1436 15.9107 52.8229 15.9107H54.4853V18.8333H52.1526Z" fill="black"/>
<path d="M56.1719 18.8333V5.5339H59.2018L59.4967 7.3304C59.9257 6.68687 60.4888 6.17742 61.186 5.80204C61.901 5.40877 62.7233 5.21214 63.6528 5.21214C65.7085 5.21214 67.1653 6.0076 68.0234 7.59853C68.506 6.86563 69.1495 6.28468 69.9539 5.85566C70.7762 5.42665 71.67 5.21214 72.6353 5.21214C74.3692 5.21214 75.7009 5.73053 76.6304 6.76732C77.56 7.8041 78.0247 9.32352 78.0247 11.3256V18.8333H74.5926V11.6473C74.5926 10.5033 74.3692 9.6274 73.9223 9.01964C73.4933 8.41187 72.8229 8.10798 71.9113 8.10798C70.9818 8.10798 70.231 8.44762 69.659 9.12689C69.1048 9.80616 68.8278 10.7536 68.8278 11.9691V18.8333H65.3956V11.6473C65.3956 10.5033 65.1722 9.6274 64.7253 9.01964C64.2784 8.41187 63.5902 8.10798 62.6607 8.10798C61.749 8.10798 61.0072 8.44762 60.4352 9.12689C59.881 9.80616 59.604 10.7536 59.604 11.9691V18.8333H56.1719Z" fill="black"/>
<path d="M86.3241 19.1551C85.037 19.1551 83.8751 18.8601 82.8384 18.2702C81.8194 17.6803 81.0061 16.867 80.3983 15.8302C79.8084 14.7756 79.5135 13.56 79.5135 12.1836C79.5135 10.8072 79.8174 9.60059 80.4251 8.56381C81.0329 7.50915 81.8463 6.68688 82.8652 6.09698C83.9019 5.50709 85.0639 5.21214 86.3509 5.21214C87.6201 5.21214 88.7641 5.50709 89.783 6.09698C90.8198 6.68688 91.6331 7.50915 92.223 8.56381C92.8308 9.60059 93.1347 10.8072 93.1347 12.1836C93.1347 13.56 92.8308 14.7756 92.223 15.8302C91.6331 16.867 90.8198 17.6803 89.783 18.2702C88.7462 18.8601 87.5932 19.1551 86.3241 19.1551ZM86.3241 16.1788C87.2179 16.1788 87.9954 15.8481 88.6568 15.1867C89.3182 14.5074 89.6489 13.5064 89.6489 12.1836C89.6489 10.8608 89.3182 9.86872 88.6568 9.20733C87.9954 8.52806 87.2268 8.18842 86.3509 8.18842C85.4392 8.18842 84.6527 8.52806 83.9913 9.20733C83.3478 9.86872 83.026 10.8608 83.026 12.1836C83.026 13.5064 83.3478 14.5074 83.9913 15.1867C84.6527 15.8481 85.4303 16.1788 86.3241 16.1788Z" fill="black"/>
<path d="M97.801 18.8333L92.921 5.5339H96.514L99.8925 15.5889L103.271 5.5339H106.864L101.957 18.8333H97.801Z" fill="black"/>
<path d="M113.495 19.1551C112.155 19.1551 110.966 18.8691 109.929 18.2971C108.892 17.725 108.079 16.9206 107.489 15.8839C106.899 14.8471 106.604 13.6494 106.604 12.2909C106.604 10.9144 106.89 9.68997 107.462 8.61744C108.052 7.5449 108.857 6.71369 109.876 6.12379C110.912 5.51603 112.128 5.21214 113.522 5.21214C114.827 5.21214 115.98 5.49815 116.981 6.07017C117.982 6.64219 118.76 7.42871 119.314 8.42974C119.886 9.4129 120.172 10.5122 120.172 11.7278C120.172 11.9244 120.163 12.13 120.145 12.3445C120.145 12.559 120.136 12.7824 120.118 13.0148H110.01C110.081 14.0516 110.439 14.8649 111.082 15.4548C111.744 16.0447 112.539 16.3397 113.469 16.3397C114.166 16.3397 114.747 16.1877 115.211 15.8839C115.694 15.5621 116.052 15.151 116.284 14.6504H119.77C119.519 15.4906 119.099 16.2592 118.51 16.9564C117.938 17.6357 117.222 18.1719 116.364 18.5652C115.524 18.9584 114.568 19.1551 113.495 19.1551ZM113.522 8.00073C112.682 8.00073 111.94 8.24205 111.297 8.72469C110.653 9.18945 110.242 9.90448 110.063 10.8698H116.686C116.633 9.99386 116.311 9.29671 115.721 8.77832C115.131 8.25993 114.398 8.00073 113.522 8.00073Z" fill="black"/>
</svg>
